# xmcd CD database file
#
# Track frame offsets:
#	150
#	13767
#	25692
#	41020
#	54532
#	69350
#	81395
#	95825
#	109750
#	123672
#	136207
#	150220
#	164592
#	177810
#	192267
#	203415
#	215742
#	229092
#	242895
#	256507
#	269867
#	282942
#	295645
#	308317
#	321080
#
# Disc length: 4446 seconds
#
# Revision: 0
# Processed by: cddbd v1.5.2PL0 Copyright (c) Steve Scherf et al.
# Submitted via: CDex 1.51
#
DISCID=60115c19
DTITLE=Jimmie Noone - The APEX of New Orleans Jazz
DYEAR=1997
DGENRE=Jazz
TTITLE0=Play That Thing
TTITLE1=Messin' Around
TTITLE2=Here Comes The Hot Tamale Man
TTITLE3=I Know That You Know
TTITLE4=Four Or Five Times
TTITLE5=Every Evening
TTITLE6=Apex Blues
TTITLE7=A Monday Date
TTITLE8=Blues My Naughty Sweetie Gives To Me
TTITLE9=Oh! Sister, Ain't That Hot
TTITLE10=King Joe
TTITLE11=Some Rainy Day
TTITLE12=Chicago Bhythm
TTITLE13=I Got A Misery
TTITLE14=I Lost My Gal From Memphis
TTITLE15=San
TTITLE16=Way Down Yonder In New Orleans
TTITLE17=The Blues Jumped A Rabbit
TTITLE18=Sweet Georgia Brown
TTITLE19=I Know That You Know
TTITLE20=New Orleans Hop Scop Blues
TTITLE21=Keystone Blues
TTITLE22=Clambake In B Flat
TTITLE23=Muskrat Ramble
TTITLE24=Sugarfoot Stomp
EXTD=YEAR: 1997
EXTT0=
EXTT1=
EXTT2=
EXTT3=
EXTT4=
EXTT5=
EXTT6=
EXTT7=
EXTT8=
EXTT9=
EXTT10=
EXTT11=
EXTT12=
EXTT13=
EXTT14=
EXTT15=
EXTT16=
EXTT17=
EXTT18=
EXTT19=
EXTT20=
EXTT21=
EXTT22=
EXTT23=
EXTT24=
PLAYORDER=
